<?xml version="1.0" encoding="utf-8"?>
<!-- Generator: Adobe Illustrator 27.3.1, SVG Export Plug-In . SVG Version: 6.00 Build 0)  -->
<svg version="1.1" id="Camada_2_00000135668530277014405920000016876031707452742571_"
	 xmlns="http://www.w3.org/2000/svg" xmlns:xlink="http://www.w3.org/1999/xlink" x="0px" y="0px" viewBox="0 0 837 837"
	 style="enable-background:new 0 0 837 837;" xml:space="preserve">
<style type="text/css">
	.st0{fill:#4F565D;}
	.st1{fill:#1F3C4C;}
	.st2{fill:#ACB0A0;}
</style>
<g id="Camada_2-2">
	<g id="Camada_1-2">
		<g>
			<polygon class="st0" points="252.1,643.2 300.2,445 216.8,467 287.3,348.4 156,263.5 454.4,121.8 522.7,135.5 498.7,209.7 
				408.4,244.9 458.1,272.2 376.1,361.3 449.4,349.3 383.9,537.5 430.7,523.3 340.3,748.9 339.4,608 			"/>
			<path class="st1" d="M594.8,95.7l55.8,18.9v62.8c0,0-110.5,77.4-122.9,189.3l52.5-40.6c0,0-19.2,45.3-11,116.3c0,0-4.2,81-9.2,76
				l-39.8-79.6l-92,264l101.8-130.1l39.1,70.5c0,0,57.8-106.1,54-246.7C619.7,267.2,698,213.8,698,213.8L683.1,52.2L594.8,95.7
				L594.8,95.7L594.8,95.7z"/>
			<polygon class="st2" points="363.6,220.3 236.8,264.8 315.8,300.6 			"/>
			<path class="st2" d="M594.8,95.7l-72.1,39.8l-24,74.2l-90.4,35.2l49.7,27.4l-82,89.1l73.3-12l-65.5,188.2l46.8-14.2l-90.4,225.6
				l87.9-46.1l92-264l39.8,79.6c0,0,5.9,9.2,9.2-76c0,0-8.3-69.2,11-116.3l-52.5,40.6c0,0,9.6-105.5,122.9-189.3v-62.8L594.8,95.7
				L594.8,95.7L594.8,95.7z"/>
		</g>
	</g>
</g>
</svg>
